<svg width="100" height="226" viewBox="0 0 100 226" fill="none" xmlns="http://www.w3.org/2000/svg">
<path opacity="0.1" d="M212.17 81.4751C205.618 81.2748 199.796 85.6313 198.694 91.5708C198.627 91.9376 198.575 92.3044 198.544 92.6684C198.231 96.2349 195.945 99.4036 192.587 101.212L188.168 103.594C184.421 105.611 179.79 105.645 176.015 103.673C173.889 102.561 171.47 101.85 168.871 101.661C165.842 101.438 162.932 101.949 160.348 103.029C156.371 104.694 151.743 104.353 148.174 102.033L136.178 94.2429C137.445 91.7175 138.016 88.848 137.66 85.8486C136.724 77.9594 129.389 71.828 120.76 71.7151C119.894 71.7039 119.044 71.7518 118.215 71.8506C113.965 72.3669 109.718 70.8997 107.097 67.7818L103.819 63.8852C103.282 63.2475 102.834 62.5647 102.463 61.8508C106.722 58.5749 109.22 53.4593 108.561 47.9092C107.625 40.02 100.29 33.8886 91.6601 33.7758C90.7947 33.7645 89.9446 33.8124 89.116 33.9112C84.8656 34.4276 80.6182 32.9603 77.9974 29.8424L74.7198 25.9458C72.323 23.096 71.5404 19.3545 72.6851 15.9122C73.2528 14.2023 73.4216 12.34 73.0933 10.4185C72.1327 4.80629 66.9125 0.486407 60.7378 0.19296C52.5623 -0.193601 46.0592 6.14092 46.8234 13.5251C47.4433 19.5238 52.8876 24.2782 59.4366 24.5265C59.8417 24.5406 60.2437 24.5406 60.6396 24.5237C64.5249 24.3544 68.2382 26.0333 70.6166 28.8633L73.75 32.5879C76.4046 35.7453 77.0337 39.9664 75.3857 43.6599C74.4589 45.7422 73.9986 48.0362 74.1275 50.4317C74.2748 53.2223 75.1955 55.8097 76.6931 58.0275C78.9978 61.4417 79.2188 65.7051 77.1749 69.2547L71.2458 79.5536C69.0362 78.5604 66.578 77.9876 64.0031 77.9537C63.1377 77.9424 62.2876 77.9904 61.459 78.0892C57.2086 78.6055 52.9612 77.1383 50.3404 74.0204L47.0628 70.1238C44.666 67.2739 43.8834 63.5325 45.0281 60.0901C45.5958 58.3802 45.7646 56.5179 45.4362 54.5964C44.4757 48.9814 39.2555 44.6615 33.0839 44.3709C24.9083 43.9844 18.4053 50.3189 19.1695 57.703C19.7894 63.7018 25.2336 68.4562 31.7827 68.7045C32.1878 68.7186 32.5898 68.7186 32.9857 68.7017C36.8709 68.5324 40.5843 70.2112 42.9627 73.0413L46.0961 76.7658C48.7507 79.9232 49.3798 84.1443 47.7318 87.8378C46.805 89.9202 46.3446 92.2141 46.4735 94.6097C46.6208 97.4003 47.5415 99.9877 49.0392 102.205C51.3439 105.62 51.5649 109.883 49.521 113.433L42.1218 126.285C40.5444 129.025 37.8376 131.141 34.5662 131.88C34.1549 131.973 33.7406 132.095 33.3233 132.244C29.6007 133.593 27.0228 136.889 26.9982 140.568C26.9614 146.028 32.1448 150.269 38.0739 149.563C42.8031 148.999 46.4643 145.252 46.5779 140.87C46.6086 139.71 46.403 138.607 46.004 137.591C44.8716 134.702 44.9698 131.525 46.5318 128.81L54.1335 115.608C56.1744 112.064 60.1425 109.892 64.5003 109.714C64.5249 109.714 64.5463 109.714 64.5678 109.711C74.4558 109.271 81.9962 101.274 80.9067 92.09C80.4494 88.2357 78.4608 84.8018 75.5422 82.2821L81.7905 71.4273C83.8314 67.8834 87.7995 65.7108 92.1573 65.533C92.1819 65.533 92.2033 65.533 92.2248 65.5302C93.9956 65.4512 95.6866 65.1267 97.2701 64.599C98.1846 65.2198 99.0102 65.9562 99.7191 66.7971L102.852 70.5216C105.507 73.679 106.136 77.9001 104.488 81.5936C103.561 83.6759 103.101 85.9699 103.23 88.3655C103.377 91.156 104.298 93.7435 105.796 95.9612C108.1 99.3754 108.321 103.639 106.277 107.188L98.8782 120.041C98.8168 120.151 98.7493 120.255 98.6818 120.363C97 119.852 95.1986 119.651 93.391 119.793C85.5745 119.818 79.4919 125.986 80.2315 133.142C80.4801 135.54 81.5082 137.732 83.058 139.524C83.3127 141.987 82.6406 144.501 81.1491 146.632L78.3779 150.59C76.0271 153.948 71.9117 155.901 67.5754 155.709C65.1325 155.602 62.6252 155.971 60.213 156.88C57.4019 157.941 55.0573 159.603 53.2834 161.64C50.5552 164.777 46.2587 166.394 41.9346 165.807L26.2893 163.688C22.9534 163.237 19.8784 161.6 18.0278 159.01C17.7946 158.686 17.5337 158.367 17.2391 158.056C14.6121 155.283 10.3709 154.148 6.59307 155.356C0.986173 157.148 -1.63161 163.059 1.0721 167.96C3.22955 171.868 8.29631 173.793 12.826 172.427C14.0229 172.066 15.0878 171.518 15.9962 170.833C18.5802 168.886 21.8701 167.909 25.1753 168.358L41.2503 170.534C45.5651 171.118 49.1159 173.832 50.7547 177.548C50.7639 177.568 50.7731 177.588 50.7792 177.607C54.5356 186.027 65.2522 189.893 74.3024 185.88C82.076 182.432 85.9121 174.027 83.1439 166.51C82.8677 165.757 82.5332 165.034 82.1527 164.349C80.2039 160.839 80.2868 156.668 82.6069 153.353L85.507 149.211C87.5355 146.313 90.8991 144.425 94.6155 144.129C98.2921 144.14 101.757 145.785 104.022 148.477L107.155 152.202C109.81 155.359 110.439 159.58 108.791 163.274C107.864 165.356 107.404 167.65 107.533 170.045C107.68 172.836 108.601 175.423 110.098 177.641C112.403 181.055 112.624 185.319 110.58 188.868L103.181 201.721C101.603 204.461 98.8966 206.577 95.6252 207.319C95.2139 207.412 94.7996 207.533 94.3823 207.683C90.6597 209.032 88.0818 212.327 88.0572 216.007C88.0204 221.466 93.2038 225.707 99.1329 225.002C103.862 224.438 107.523 220.691 107.637 216.309C107.668 215.149 107.462 214.046 107.063 213.03C105.931 210.141 106.029 206.963 107.591 204.249L115.193 191.047C117.233 187.503 121.201 185.33 125.559 185.152C125.584 185.152 125.605 185.152 125.627 185.15C135.515 184.709 143.055 176.713 141.966 167.529C141.03 159.639 133.695 153.508 125.065 153.395C124.2 153.384 123.35 153.429 122.521 153.531C118.271 154.047 114.023 152.58 111.402 149.462L108.125 145.565C106.437 143.556 105.553 141.104 105.578 138.627C107.665 135.701 108.373 131.993 107.241 128.494C106.48 126.144 105.044 124.189 103.205 122.724C103.233 122.671 103.261 122.617 103.291 122.566L110.893 109.364C112.934 105.82 116.902 103.647 121.26 103.47C121.284 103.47 121.306 103.47 121.327 103.467C126.118 103.252 130.356 101.263 133.33 98.2242L145.246 105.961C148.809 108.275 150.645 112.169 150.279 116.167C150.279 116.187 150.276 116.209 150.273 116.229C149.485 125.3 157.151 133.201 167.195 133.379C175.825 133.531 183.378 127.625 184.602 119.77C184.725 118.983 184.783 118.201 184.78 117.431C184.768 113.489 186.888 109.804 190.589 107.809L195.211 105.318C198.59 103.498 202.727 103.258 206.296 104.745C208.067 105.481 210.056 105.874 212.17 105.82C218.348 105.662 223.675 101.452 224.78 95.8597C226.241 88.4557 220.238 81.7149 212.173 81.4694L212.17 81.4751Z" fill="url(#paint0_linear_130_252)"/>
<defs>
<linearGradient id="paint0_linear_130_252" x1="-0.00815323" y1="112.631" x2="224.995" y2="112.631" gradientUnits="userSpaceOnUse">
<stop stop-color="#582FC0"/>
<stop offset="0.16" stop-color="#8461F7"/>
<stop offset="0.56" stop-color="#0088CE"/>
<stop offset="0.62" stop-color="#0996D3"/>
<stop offset="0.78" stop-color="#20BDE1"/>
<stop offset="0.92" stop-color="#2FD5E9"/>
<stop offset="1" stop-color="#35DEED"/>
</linearGradient>
</defs>
</svg>
