<svg width="32" height="32" viewBox="0 0 32 32" fill="none" xmlns="http://www.w3.org/2000/svg">
<path d="M25.9484 25.25H6.04844C4.84844 25.25 3.89844 24.3 3.89844 23.1V8.84995C3.89844 7.64995 4.84844 6.69995 6.04844 6.69995H25.9484C27.1484 6.69995 28.0984 7.64995 28.0984 8.84995V23.1C28.0984 24.3 27.1484 25.25 25.9484 25.25ZM6.04844 8.14995C5.64844 8.14995 5.34844 8.44995 5.34844 8.84995V23.1C5.34844 23.5 5.64844 23.7999 6.04844 23.7999H25.9484C26.3484 23.7999 26.6484 23.5 26.6484 23.1V8.84995C26.6484 8.44995 26.3484 8.14995 25.9484 8.14995H6.04844Z" fill="#582FC0"/>
<path d="M4.59766 9.59998H27.3977V13.85H4.59766V9.59998ZM6.74766 16.7H7.44766V18.15H6.74766V16.7ZM8.14766 16.7H8.89766V18.15H8.14766V16.7ZM9.59766 16.7H10.2977V18.15H9.59766V16.7ZM11.7477 16.7H12.4477V18.15H11.7477V16.7ZM13.1477 16.7H13.8477V18.15H13.1477V16.7ZM14.5977 16.7H15.2977V18.15H14.5977V16.7ZM16.6977 16.7H17.3977V18.15H16.6977V16.7ZM18.1477 16.7H18.8477V18.15H18.1477V16.7ZM19.5477 16.7H20.2477V18.15H19.5477V16.7ZM21.6977 16.7H22.3977V18.15H21.6977V16.7ZM23.0977 16.7H23.8477V18.15H23.0977V16.7ZM24.5477 16.7H25.2477V18.15H24.5477V16.7Z" fill="#582FC0"/>
</svg>
