<svg width="33" height="24" viewBox="0 0 33 24" fill="none" xmlns="http://www.w3.org/2000/svg">
<rect width="33" height="24" rx="4" fill="#5AFEAE"/>
<path d="M27.3501 9.93808L25.6632 16.1088V16.1283H26.9842L28.6711 9.95755H27.3501V9.93808ZM6.49765 13.442C6.29441 13.5393 6.09117 13.5782 5.8676 13.5782C5.40015 13.5782 5.13594 13.5004 5.09529 13.1305V13.111C5.09529 13.0916 5.09529 13.0916 5.09529 13.0721V12.0015V11.8847V11.1255V10.8141V10.6973V9.97702L3.9165 10.1133C4.70913 9.95755 5.15626 9.37357 5.15626 8.77012V8.40027H3.8352V10.1327L3.75391 10.1522V13.3446C3.79455 14.2401 4.4246 14.7851 5.42047 14.7851C5.78631 14.7851 6.17246 14.7073 6.47732 14.571L6.49765 13.442Z" fill="#292929"/>
<path d="M6.69897 9.70508L3 10.2501V11.1456L6.69897 10.6005V9.70508ZM6.69897 11.0288L3 11.5738V12.4303L6.69897 11.8853V11.0288ZM10.8451 11.4376C10.7841 10.4448 10.1337 9.84134 9.07688 9.84134C8.46716 9.84134 7.95906 10.0749 7.61355 10.5032C7.26804 10.9314 7.08513 11.5543 7.08513 12.3135C7.08513 13.0727 7.26804 13.6956 7.61355 14.1239C7.95906 14.5521 8.46716 14.7662 9.07688 14.7662C10.1337 14.7662 10.7841 14.1823 10.8451 13.17V14.6689H12.1661V9.95813L10.8451 10.1528V11.4376ZM10.9264 12.3135C10.9264 13.1895 10.4386 13.7735 9.6866 13.7735C8.91429 13.7735 8.44683 13.2284 8.44683 12.3135C8.44683 11.3986 8.91429 10.8536 9.6866 10.8536C10.0524 10.8536 10.3776 10.9898 10.6012 11.2624C10.8044 11.5154 10.9264 11.8853 10.9264 12.3135ZM16.0074 9.84134C14.9505 9.84134 14.3001 10.4253 14.2392 11.4376V8.57605L12.9181 8.77071V14.6689H14.2392V13.17C14.3001 14.1823 14.9505 14.7662 16.0074 14.7662C17.2471 14.7662 17.9991 13.8513 17.9991 12.3135C17.9991 10.7757 17.2471 9.84134 16.0074 9.84134ZM15.418 13.7735C14.666 13.7735 14.1782 13.209 14.1782 12.3135C14.1782 11.8853 14.3001 11.5154 14.5034 11.2624C14.727 10.9898 15.0318 10.8536 15.418 10.8536C16.1903 10.8536 16.6577 11.3986 16.6577 12.3135C16.6577 13.2284 16.1903 13.7735 15.418 13.7735ZM21.5761 9.84134C20.5193 9.84134 19.8689 10.4253 19.808 11.4376V8.57605L18.4869 8.77071V14.6689H19.808V13.17C19.8689 14.1823 20.5193 14.7662 21.5761 14.7662C22.8159 14.7662 23.5679 13.8513 23.5679 12.3135C23.5679 10.7757 22.8159 9.84134 21.5761 9.84134ZM20.9867 13.7735C20.2348 13.7735 19.747 13.209 19.747 12.3135C19.747 11.8853 19.8689 11.5154 20.0722 11.2624C20.2957 10.9898 20.6006 10.8536 20.9867 10.8536C21.7591 10.8536 22.2265 11.3986 22.2265 12.3135C22.2265 13.2284 21.7591 13.7735 20.9867 13.7735ZM23.5679 9.93867H24.9702L26.1084 14.6689H24.8483L23.5679 9.93867ZM29.7464 10.4253V10.0555H29.5838V9.9776H30.0106V10.0555H29.848V10.4253H29.7464ZM30.0309 10.4253V9.95813H30.1935L30.2748 10.1723C30.2951 10.2307 30.3155 10.2501 30.3155 10.2696C30.3155 10.2501 30.3358 10.2307 30.3561 10.1723L30.4374 9.95813H30.6V10.4253H30.4984V10.0555L30.3561 10.4253H30.2545L30.1325 10.0555V10.4253H30.0309Z" fill="#292929"/>
</svg>
