<svg width="48" height="48" viewBox="0 0 48 48" fill="none" xmlns="http://www.w3.org/2000/svg">
<path d="M29.46 4H18.54V12.72H29.46V4Z" fill="#00A4ED"/>
<path d="M32.46 4V12.72H43.74C42.72 7.22 38.66 4.02 32.46 4Z" fill="#00A4ED"/>
<path d="M4 15.72V32.38C4 39.66 8.34 44 15.62 44H32.38C39.66 44 44 39.66 44 32.38V15.72H4ZM28.88 32.36L24.72 34.76C23.84 35.26 22.98 35.52 22.18 35.52C21.58 35.52 21.04 35.38 20.54 35.1C19.38 34.44 18.74 33.08 18.74 31.32V26.52C18.74 24.76 19.38 23.4 20.54 22.74C21.7 22.06 23.18 22.18 24.72 23.08L28.88 25.48C30.42 26.36 31.26 27.6 31.26 28.94C31.26 30.28 30.4 31.46 28.88 32.36Z" fill="#00A4ED"/>
<path d="M15.5398 4C9.33977 4.02 5.27977 7.22 4.25977 12.72H15.5398V4Z" fill="#00A4ED"/>
</svg>
