<svg width="24" height="24" viewBox="0 0 24 24" fill="none" xmlns="http://www.w3.org/2000/svg">
<path d="M14.6084 4.05388C13.2442 3.41433 11.7154 3.41433 10.3513 4.05388L3.92782 7.06535C2.89486 7.54963 2.62555 8.9152 3.11988 9.85901V14.6142C3.11988 15.0119 3.44224 15.3342 3.83988 15.3342C4.23752 15.3342 4.55988 15.0119 4.55988 14.6142V10.9394L10.3514 13.6546C11.7155 14.2941 13.2443 14.2941 14.6085 13.6546L21.0319 10.6431C22.4292 9.98804 22.4292 7.72046 21.0319 7.06539L14.6084 4.05388Z" fill="#FDA31B"/>
<path d="M5.75977 13.0924V16.6547C5.75977 17.6224 6.24313 18.5284 7.08968 18.9972C8.49932 19.7778 10.7556 20.8542 12.4798 20.8542C14.2039 20.8542 16.4602 19.7778 17.8699 18.9972C18.7164 18.5284 19.1998 17.6224 19.1998 16.6547V13.0924L15.2196 14.9584C13.4682 15.7795 11.4914 15.7795 9.73999 14.9584L5.75977 13.0924Z" fill="#FDA31B"/>
</svg>
