<svg width="46" height="46" viewBox="0 0 46 46" fill="none" xmlns="http://www.w3.org/2000/svg">
<g clip-path="url(#clip0_203_14685)">
<path d="M35.3932 20.2759H32.9558C32.8124 20.2759 32.6691 20.4193 32.5974 20.5626L31.5938 26.8711C31.5938 27.0145 31.6654 27.0862 31.8088 27.0862H33.0992C33.2426 27.0862 33.3142 27.0145 33.3142 26.8711L33.601 25.0789C33.601 24.9356 33.7444 24.7922 33.9594 24.7922H34.748C36.3968 24.7922 37.3287 24.0036 37.5438 22.4265C37.6872 21.7813 37.5438 21.2078 37.2571 20.8494C36.8269 20.4909 36.1817 20.2759 35.3932 20.2759ZM35.6799 22.6416C35.5366 23.5018 34.8914 23.5018 34.2462 23.5018H33.8161L34.1028 21.853C34.1028 21.7813 34.1745 21.7096 34.3179 21.7096H34.4613C34.8914 21.7096 35.3215 21.7096 35.5366 21.9964C35.6799 22.0681 35.6799 22.2831 35.6799 22.6416Z" fill="#139AD6"/>
<path d="M17.8268 20.2759H15.3894C15.246 20.2759 15.1027 20.4193 15.031 20.5626L14.0273 26.8711C14.0273 27.0145 14.099 27.0862 14.2424 27.0862H15.3894C15.5328 27.0862 15.6762 26.9428 15.7478 26.7994L16.0346 25.0789C16.0346 24.9356 16.178 24.7922 16.393 24.7922H17.1816C18.8304 24.7922 19.7623 24.0036 19.9774 22.4265C20.1208 21.7813 19.9774 21.2078 19.6907 20.8494C19.2605 20.4909 18.687 20.2759 17.8268 20.2759ZM18.1135 22.6416C17.9702 23.5018 17.325 23.5018 16.6798 23.5018H16.3213L16.6081 21.853C16.6081 21.7813 16.6798 21.7096 16.8232 21.7096H16.9665C17.3967 21.7096 17.8268 21.7096 18.0418 21.9964C18.1135 22.0681 18.1852 22.2831 18.1135 22.6416ZM25.2106 22.5699H24.0636C23.9919 22.5699 23.8485 22.6416 23.8485 22.7133L23.7768 23.0717L23.7052 22.9283C23.4184 22.5699 22.9166 22.4265 22.3431 22.4265C21.0527 22.4265 19.9057 23.4301 19.6907 24.7922C19.5473 25.5091 19.7623 26.1543 20.1208 26.5844C20.4792 27.0145 20.981 27.1579 21.6262 27.1579C22.7015 27.1579 23.275 26.5127 23.275 26.5127L23.2033 26.8711C23.2033 27.0145 23.275 27.0862 23.4184 27.0862H24.4937C24.6371 27.0862 24.7805 26.9428 24.8522 26.7994L25.4973 22.7849C25.4257 22.7133 25.2823 22.5699 25.2106 22.5699ZM23.5618 24.8639C23.4184 25.5091 22.9166 26.0109 22.1997 26.0109C21.8413 26.0109 21.5545 25.8675 21.4112 25.7241C21.2678 25.5091 21.1961 25.2223 21.1961 24.8639C21.2678 24.2187 21.8413 23.7169 22.4865 23.7169C22.8449 23.7169 23.06 23.8603 23.275 24.0036C23.4901 24.2187 23.5618 24.5771 23.5618 24.8639Z" fill="#263B80"/>
<path d="M42.7016 22.5699H41.5546C41.4829 22.5699 41.3395 22.6416 41.3395 22.7133L41.2678 23.0717L41.1961 22.9283C40.9094 22.5699 40.4076 22.4265 39.8341 22.4265C38.5437 22.4265 37.3967 23.4301 37.1816 24.7922C37.0383 25.5091 37.2533 26.1543 37.6118 26.5844C37.9702 27.0145 38.472 27.1579 39.1172 27.1579C40.1925 27.1579 40.766 26.5127 40.766 26.5127L40.6943 26.8711C40.6943 27.0145 40.766 27.0862 40.9094 27.0862H41.9847C42.1281 27.0862 42.2714 26.9428 42.3431 26.7995L42.9883 22.785C42.9166 22.7133 42.8449 22.5699 42.7016 22.5699ZM41.0528 24.8639C40.9094 25.5091 40.4076 26.0109 39.6907 26.0109C39.3323 26.0109 39.0455 25.8675 38.9021 25.7241C38.7588 25.5091 38.6871 25.2223 38.6871 24.8639C38.7588 24.2187 39.3323 23.7169 39.9774 23.7169C40.3359 23.7169 40.5509 23.8603 40.766 24.0036C41.0528 24.2187 41.1244 24.5771 41.0528 24.8639Z" fill="#139AD6"/>
<path d="M31.4496 22.5699H30.2309C30.0876 22.5699 30.0159 22.6416 29.9442 22.7133L28.3671 25.1507L27.6502 22.8567C27.5785 22.7133 27.5068 22.6416 27.2918 22.6416H26.1447C26.0014 22.6416 25.9297 22.785 25.9297 22.9284L27.2201 26.7278L26.0014 28.4483C25.9297 28.5917 26.0014 28.8068 26.1447 28.8068H27.2918C27.4351 28.8068 27.5068 28.7351 27.5785 28.6634L31.5213 23.0001C31.7364 22.785 31.593 22.5699 31.4496 22.5699Z" fill="#263B80"/>
<path d="M44.0661 20.491L43.0625 26.9428C43.0625 27.0862 43.1342 27.1579 43.2776 27.1579H44.2812C44.4246 27.1579 44.5679 27.0145 44.6396 26.8711L45.6432 20.5626C45.6432 20.4193 45.5716 20.3476 45.4282 20.3476H44.2812C44.2095 20.2759 44.1378 20.3476 44.0661 20.491Z" fill="#139AD6"/>
<path d="M8.72453 18.1253C8.22272 17.5518 7.29078 17.265 6.00041 17.265H2.41603C2.20097 17.265 1.98591 17.4801 1.91422 17.6951L0.480469 27.0862C0.480469 27.3013 0.623844 27.4446 0.767219 27.4446H2.98953L3.56303 23.932V24.0753C3.63472 23.8603 3.84978 23.6452 4.06484 23.6452H5.14016C7.21909 23.6452 8.79622 22.785 9.29803 20.4193V20.2042C9.22634 20.2042 9.22634 20.2042 9.29803 20.2042C9.36972 19.2723 9.22634 18.6988 8.72453 18.1253Z" fill="#263B80"/>
<path d="M9.22531 20.2042V20.4193C8.7235 22.8567 7.14638 23.6452 5.06744 23.6452H3.99213C3.77706 23.6452 3.562 23.8603 3.49031 24.0753L2.77344 28.4483C2.77344 28.5917 2.84512 28.735 3.06019 28.735H4.92406C5.13912 28.735 5.35419 28.5917 5.35419 28.3766V28.3049L5.71263 26.0826V25.9392C5.71263 25.7242 5.92769 25.5808 6.14275 25.5808H6.4295C8.22169 25.5808 9.65544 24.8639 10.0139 22.7133C10.1573 21.853 10.0856 21.0645 9.65544 20.5627C9.58375 20.4193 9.44038 20.2759 9.22531 20.2042Z" fill="#139AD6"/>
<path d="M8.724 19.9892C8.65231 19.9892 8.58063 19.9175 8.50894 19.9175C8.43725 19.9175 8.36556 19.9175 8.29387 19.8459C8.00712 19.7742 7.72038 19.7742 7.36194 19.7742H4.56612C4.49444 19.7742 4.42275 19.7742 4.35106 19.8459C4.20769 19.9175 4.136 20.0609 4.136 20.2043L3.5625 23.932V24.0754C3.63419 23.8604 3.84925 23.6453 4.06431 23.6453H5.13962C7.21856 23.6453 8.79569 22.785 9.2975 20.4194C9.2975 20.3477 9.2975 20.276 9.36919 20.2043C9.22581 20.1326 9.15412 20.0609 9.01075 20.0609C8.79569 19.9892 8.79569 19.9892 8.724 19.9892Z" fill="#232C65"/>
</g>
<defs>
<clipPath id="clip0_203_14685">
<rect width="45.88" height="45.88" fill="white" transform="translate(0.121094 0.0600586)"/>
</clipPath>
</defs>
</svg>
