<svg width="176" height="176" viewBox="0 0 176 176" fill="none" xmlns="http://www.w3.org/2000/svg">
<path d="M75.0203 139.333C73.2366 136.261 70.3972 133.942 67.0308 132.808C63.6645 131.674 60.0007 131.803 56.7218 133.169C53.443 134.536 50.7726 137.047 49.208 140.237C47.6434 143.426 47.2913 147.075 48.2172 150.504C49.1432 153.934 51.2841 156.91 54.2411 158.878C57.1982 160.846 60.7699 161.672 64.291 161.203C67.812 160.734 71.0425 159 73.3806 156.326C75.7187 153.652 77.0051 150.219 77.0003 146.667C76.9992 144.09 76.316 141.56 75.0203 139.333ZM62.3336 154C60.8832 154 59.4654 153.57 58.2594 152.764C57.0535 151.958 56.1135 150.813 55.5585 149.473C55.0034 148.133 54.8582 146.659 55.1412 145.236C55.4241 143.814 56.1226 142.507 57.1482 141.481C58.1737 140.456 59.4804 139.757 60.9029 139.474C62.3255 139.191 63.8 139.337 65.14 139.892C66.4799 140.447 67.6252 141.387 68.431 142.593C69.2368 143.798 69.6669 145.216 69.6669 146.667C69.6611 148.61 68.8867 150.472 67.5126 151.846C66.1386 153.22 64.2767 153.994 62.3336 154Z" fill="#FDA31B"/>
<path d="M126.352 139.333C124.569 136.261 121.729 133.942 118.363 132.808C114.997 131.674 111.333 131.803 108.054 133.169C104.775 134.536 102.105 137.047 100.54 140.237C98.9754 143.426 98.6233 147.075 99.5493 150.504C100.475 153.934 102.616 156.91 105.573 158.878C108.53 160.846 112.102 161.672 115.623 161.203C119.144 160.734 122.375 159 124.713 156.326C127.051 153.652 128.337 150.219 128.332 146.667C128.331 144.09 127.648 141.56 126.352 139.333ZM113.666 154C112.215 154 110.797 153.57 109.591 152.764C108.385 151.958 107.446 150.813 106.891 149.473C106.335 148.133 106.19 146.659 106.473 145.236C106.756 143.814 107.455 142.507 108.48 141.481C109.506 140.456 110.812 139.757 112.235 139.474C113.658 139.191 115.132 139.337 116.472 139.892C117.812 140.447 118.957 141.387 119.763 142.593C120.569 143.798 120.999 145.216 120.999 146.667C120.993 148.61 120.219 150.472 118.845 151.846C117.471 153.22 115.609 153.994 113.666 154Z" fill="#FDA31B"/>
<path d="M135.668 139.333H44.0013C39.139 139.333 34.4758 137.402 31.0377 133.964C27.5995 130.525 25.668 125.862 25.668 121C25.668 116.138 27.5995 111.475 31.0377 108.036C34.4758 104.598 39.139 102.667 44.0013 102.667H106.335C107.307 102.667 108.24 103.053 108.927 103.741C109.615 104.428 110.001 105.361 110.001 106.333C110.001 107.306 109.615 108.238 108.927 108.926C108.24 109.614 107.307 110 106.335 110H44.0013C41.0839 110 38.286 111.159 36.2231 113.222C34.1602 115.285 33.0013 118.083 33.0013 121C33.0013 123.917 34.1602 126.715 36.2231 128.778C38.286 130.841 41.0839 132 44.0013 132H135.668C136.64 132 137.573 132.386 138.261 133.074C138.948 133.762 139.335 134.694 139.335 135.667C139.335 136.639 138.948 137.572 138.261 138.259C137.573 138.947 136.64 139.333 135.668 139.333Z" fill="#582FC0"/>
<path d="M161.883 47.3367C161.216 46.3107 160.303 45.468 159.228 44.8852C158.152 44.3024 156.947 43.9981 155.723 44H44.5867L41.5433 30.58C40.9826 28.1478 39.6162 25.9767 37.6659 24.4191C35.7155 22.8615 33.2959 22.009 30.8 22H14.6667C13.6942 22 12.7616 22.3863 12.0739 23.0739C11.3863 23.7616 11 24.6942 11 25.6667C11 26.6391 11.3863 27.5718 12.0739 28.2594C12.7616 28.947 13.6942 29.3333 14.6667 29.3333H30.8C31.6325 29.3394 32.439 29.6245 33.0904 30.143C33.7418 30.6615 34.2006 31.3834 34.3933 32.1933L38.06 48.4C38.06 48.4733 38.0967 48.51 38.0967 48.5467L50.1233 101.42C50.2236 101.842 50.346 102.258 50.49 102.667C51.2573 104.807 52.6649 106.658 54.5214 107.97C56.3779 109.282 58.5933 109.991 60.8667 110H130.863C133.005 110.005 135.101 109.382 136.893 108.209C138.685 107.036 140.094 105.364 140.947 103.4L162.47 54.2667C162.957 53.154 163.158 51.9374 163.056 50.7272C162.954 49.517 162.55 48.3516 161.883 47.3367Z" fill="#582FC0"/>
<path d="M131.268 44.0001C129.395 34.7742 124.049 26.6207 116.334 21.2254C108.62 15.8302 99.1269 13.6058 89.8185 15.0122C80.5102 16.4186 72.0983 21.3483 66.322 28.7819C60.5458 36.2155 57.8471 45.5845 58.7838 54.9518C59.7205 64.319 64.2211 72.9681 71.3549 79.1107C78.4888 85.2533 87.7103 88.4196 97.1128 87.955C106.515 87.4903 115.38 83.4302 121.873 76.6141C128.367 69.7981 131.992 60.7474 132.001 51.3334C132.003 48.8705 131.757 46.4138 131.268 44.0001Z" fill="#FDA31B"/>
<path d="M91.6685 66C90.6961 65.9998 89.7636 65.6134 89.0762 64.9257L78.0762 53.9257C77.4082 53.2342 77.0387 52.308 77.047 51.3466C77.0554 50.3852 77.441 49.4655 78.1208 48.7857C78.8006 48.1059 79.7203 47.7203 80.6817 47.7119C81.6431 47.7036 82.5693 48.0731 83.2608 48.741L91.4228 56.903L107.189 37.983C107.498 37.6128 107.877 37.3069 108.304 37.0829C108.73 36.8589 109.197 36.7212 109.677 36.6776C110.157 36.634 110.641 36.6855 111.102 36.8289C111.562 36.9724 111.989 37.2051 112.359 37.5137C112.73 37.8224 113.036 38.2009 113.26 38.6278C113.484 39.0546 113.621 39.5214 113.665 40.0015C113.708 40.4816 113.657 40.9655 113.514 41.4258C113.37 41.886 113.137 42.3134 112.829 42.6837L94.4955 64.6837C94.1676 65.0739 93.7624 65.3919 93.3055 65.6179C92.8486 65.8438 92.3499 65.9727 91.8408 65.9964L91.6685 66Z" fill="white"/>
</svg>
