<svg width="96" height="97" viewBox="0 0 96 97" fill="none" xmlns="http://www.w3.org/2000/svg">
<path d="M74.6438 44.225C74.6438 44 74.6812 43.775 74.6812 43.55C74.6812 31.3625 64.9688 21.5 52.9875 21.5C44.3438 21.5 36.9188 26.6375 33.4313 34.0625C31.9125 33.2937 30.2062 32.8438 28.4062 32.8438C22.875 32.8438 18.2625 36.95 17.3812 42.3125C10.7437 44.6 6 50.9562 6 58.4375C6 67.85 13.5187 75.5 22.7812 75.5H42V60.5H32.9625L48 44.8063L63.0375 60.4812H54V75.4812H74.6812C83.1562 75.4812 90 68.45 90 59.8438C90 51.2375 83.1188 44.2437 74.6438 44.225Z" fill="#582FC0" fill-opacity="0.4"/>
</svg>
