<svg width="113" height="113" viewBox="0 0 113 113" fill="none" xmlns="http://www.w3.org/2000/svg">
<g filter="url(#filter0_d_203_13928)">
<rect x="16" y="12" width="81" height="81" rx="16" fill="white"/>
<rect x="16.5" y="12.5" width="80" height="80" rx="15.5" stroke="#582FC0" stroke-opacity="0.1"/>
<path d="M57.0016 77C46.4184 77 37.8086 68.3899 37.8086 57.807C37.8086 48.2546 44.9351 40.0797 54.3851 38.7913L54.6015 40.3764C45.9403 41.5575 39.4086 49.0508 39.4086 57.8071C39.4086 67.508 47.3008 75.4001 57.0016 75.4001C66.702 75.4001 74.5942 67.508 74.5942 57.8071C74.5942 53.7443 73.1742 49.7793 70.5962 46.6434L71.8321 45.627C74.645 49.0489 76.1942 53.3743 76.1942 57.8071C76.1942 68.3899 67.5845 77 57.0016 77Z" fill="#00A4ED"/>
<path d="M56.9988 70.6579C49.9133 70.6579 44.1484 64.8931 44.1484 57.8071C44.1484 51.777 48.4282 46.4903 54.3243 45.2368L54.6571 46.8017C49.495 47.8994 45.7485 52.5279 45.7485 57.8071C45.7485 64.0106 50.7953 69.0579 56.9988 69.0579C63.2023 69.0579 68.2491 64.0106 68.2491 57.8071C68.2491 52.5277 64.5022 47.8992 59.3402 46.8017L59.673 45.2368C65.5694 46.4908 69.8491 51.7771 69.8491 57.8071C69.8491 64.8929 64.0843 70.6579 56.9988 70.6579Z" fill="#00A4ED"/>
<path d="M57 62.3696C54.4844 62.3696 52.4375 60.3227 52.4375 57.8071C52.4375 55.2915 54.4844 53.245 57 53.245C59.5156 53.245 61.5621 55.2915 61.5621 57.8071C61.5621 60.3227 59.5156 62.3696 57 62.3696ZM57 54.845C55.3664 54.845 54.0375 56.1739 54.0375 57.8071C54.0375 59.4407 55.3664 60.7696 57 60.7696C58.6332 60.7696 59.9621 59.4407 59.9621 57.8071C59.9621 56.1739 58.6332 54.845 57 54.845Z" fill="#582FC0"/>
<path d="M56.9992 32.6902C56.5574 32.6902 56.1992 32.3321 56.1992 31.8903V29.7999C56.1992 29.3582 56.5574 29 56.9992 29C57.4409 29 57.7991 29.3582 57.7991 29.7999V31.8902C57.7991 32.3321 57.4409 32.6902 56.9992 32.6902Z" fill="#582FC0"/>
<path d="M56.9992 54.845C56.5574 54.845 56.1992 54.4868 56.1992 54.045V42.7586C56.1992 42.3169 56.5574 41.9587 56.9992 41.9587C57.4409 41.9587 57.7991 42.3169 57.7991 42.7586V54.045C57.7991 54.4868 57.4409 54.845 56.9992 54.845Z" fill="#582FC0"/>
<path d="M72.8839 43.5586H56.9992C56.5574 43.5586 56.1992 43.2004 56.1992 42.7586V31.8903C56.1992 31.4485 56.5574 31.0904 56.9992 31.0904H72.8839C73.182 31.0904 73.4551 31.256 73.593 31.5196C73.7308 31.7837 73.711 32.1024 73.5406 32.347L70.0793 37.324L73.5406 42.3021C73.711 42.5467 73.7308 42.8654 73.593 43.1295C73.4551 43.393 73.182 43.5586 72.8839 43.5586ZM57.7991 41.9586H71.3531L68.448 37.7805C68.2569 37.5059 68.2569 37.1414 68.448 36.8673L71.3531 32.6902H57.7991V41.9586Z" fill="#582FC0"/>
</g>
<defs>
<filter id="filter0_d_203_13928" x="0" y="0" width="113" height="113" filterUnits="userSpaceOnUse" color-interpolation-filters="sRGB">
<feFlood flood-opacity="0" result="BackgroundImageFix"/>
<feColorMatrix in="SourceAlpha" type="matrix" values="0 0 0 0 0 0 0 0 0 0 0 0 0 0 0 0 0 0 127 0" result="hardAlpha"/>
<feOffset dy="4"/>
<feGaussianBlur stdDeviation="8"/>
<feComposite in2="hardAlpha" operator="out"/>
<feColorMatrix type="matrix" values="0 0 0 0 0 0 0 0 0 0 0 0 0 0 0 0 0 0 0.08 0"/>
<feBlend mode="normal" in2="BackgroundImageFix" result="effect1_dropShadow_203_13928"/>
<feBlend mode="normal" in="SourceGraphic" in2="effect1_dropShadow_203_13928" result="shape"/>
</filter>
</defs>
</svg>
