<svg width="113" height="113" viewBox="0 0 113 113" fill="none" xmlns="http://www.w3.org/2000/svg">
<g filter="url(#filter0_d_203_13936)">
<rect x="16" y="12" width="81" height="81" rx="16" fill="white"/>
<rect x="16.5" y="12.5" width="80" height="80" rx="15.5" stroke="#582FC0" stroke-opacity="0.1"/>
<path d="M45.0669 62.2792C39.7379 62.2792 35.4023 57.9436 35.4023 52.6146C35.9333 39.7932 54.2025 39.797 54.7315 52.6147C54.7315 57.9436 50.3959 62.2792 45.0669 62.2792ZM45.0669 44.6484C40.6743 44.6484 37.1007 48.222 37.1007 52.6146C37.5383 63.1829 52.5971 63.1798 53.0331 52.6146C53.0331 48.222 49.4594 44.6484 45.0669 44.6484Z" fill="#00A4ED"/>
<path d="M68.9381 62.2792C63.609 62.2792 59.2734 57.9436 59.2734 52.6146C59.8043 39.7933 78.0736 39.7969 78.6026 52.6147C78.6026 57.9436 74.267 62.2792 68.9381 62.2792ZM68.9381 44.6484C64.5455 44.6484 60.9718 48.222 60.9718 52.6146C61.4094 63.1828 76.4682 63.1799 76.9042 52.6146C76.9042 48.222 73.3306 44.6484 68.9381 44.6484Z" fill="#00A4ED"/>
<path d="M53.1054 49.8405C52.528 49.8504 52.0947 49.2344 52.3102 48.6935C53.96 44.3667 60.0477 44.3533 61.6938 48.6933C61.8583 49.1323 61.6358 49.6218 61.1966 49.7863C60.7574 49.951 60.268 49.7283 60.1034 49.2891C59.6073 47.965 58.3364 47.0962 56.9348 47.1226C55.5948 47.1496 54.3755 48.0201 53.9008 49.2887C53.7731 49.6299 53.4493 49.8405 53.1054 49.8405Z" fill="#00A4ED"/>
<path d="M79.1583 49.8403H76.9781C76.509 49.8403 76.1289 49.4601 76.1289 48.9912C76.1289 48.5222 76.509 48.142 76.9781 48.142H79.1583C80.2818 48.1805 80.2826 49.8015 79.1583 49.8403Z" fill="#00A4ED"/>
<path d="M37.0294 49.8403H34.8492C34.3801 49.8403 34 49.4601 34 48.9912C34 48.5222 34.3801 48.142 34.8492 48.142H37.0294C38.1529 48.1805 38.1537 49.8015 37.0294 49.8403Z" fill="#00A4ED"/>
<path d="M48.6181 48.9555C48.3042 49.458 47.6424 49.6108 47.14 49.2969C45.9631 48.4949 47.0406 46.7713 48.2768 47.4774C48.7793 47.7913 48.9321 48.4531 48.6181 48.9555Z" fill="#582FC0"/>
<path d="M40.2851 52.0598C39.7298 52.0672 39.3035 51.5037 39.4701 50.9707C40.0557 48.9811 41.671 47.4391 43.6857 46.9463C44.1413 46.8346 44.6008 47.1138 44.7123 47.5694C44.8238 48.0249 44.5448 48.4846 44.0892 48.596C42.6602 48.9455 41.5146 50.0391 41.0994 51.4501C40.9905 51.82 40.6521 52.0598 40.2851 52.0598Z" fill="#582FC0"/>
<path d="M64.1562 52.0598C63.6008 52.0673 63.1745 51.5037 63.3413 50.9706C63.9268 48.9811 65.5421 47.4391 67.5568 46.9463C68.0125 46.8346 68.472 47.1138 68.5834 47.5694C68.6949 48.0249 68.4159 48.4846 67.9604 48.596C66.5314 48.9455 65.3858 50.0392 64.9704 51.4501C64.8616 51.82 64.5231 52.0598 64.1562 52.0598Z" fill="#582FC0"/>
</g>
<defs>
<filter id="filter0_d_203_13936" x="0" y="0" width="113" height="113" filterUnits="userSpaceOnUse" color-interpolation-filters="sRGB">
<feFlood flood-opacity="0" result="BackgroundImageFix"/>
<feColorMatrix in="SourceAlpha" type="matrix" values="0 0 0 0 0 0 0 0 0 0 0 0 0 0 0 0 0 0 127 0" result="hardAlpha"/>
<feOffset dy="4"/>
<feGaussianBlur stdDeviation="8"/>
<feComposite in2="hardAlpha" operator="out"/>
<feColorMatrix type="matrix" values="0 0 0 0 0 0 0 0 0 0 0 0 0 0 0 0 0 0 0.08 0"/>
<feBlend mode="normal" in2="BackgroundImageFix" result="effect1_dropShadow_203_13936"/>
<feBlend mode="normal" in="SourceGraphic" in2="effect1_dropShadow_203_13936" result="shape"/>
</filter>
</defs>
</svg>
