<svg width="64" height="64" viewBox="0 0 64 64" fill="none" xmlns="http://www.w3.org/2000/svg">
<rect width="64" height="64" rx="32" fill="#582FC0"/>
<g clip-path="url(#clip0_200_13687)">
<path d="M40.0484 19.925C39.2524 19.925 38.4742 20.1611 37.8123 20.6034C37.1504 21.0457 36.6345 21.6743 36.3298 22.4097C36.0252 23.1452 35.9455 23.9545 36.1008 24.7353C36.2561 25.5161 36.6394 26.2332 37.2023 26.7962C37.7652 27.3591 38.4824 27.7424 39.2632 27.8977C40.044 28.053 40.8533 27.9733 41.5887 27.6687C42.3242 27.364 42.9528 26.8481 43.3951 26.1862C43.8374 25.5243 44.0734 24.7461 44.0734 23.95C44.0713 22.8832 43.6466 21.8607 42.8922 21.1063C42.1378 20.3519 41.1153 19.9272 40.0484 19.925ZM42.6501 23.4484L40.3751 25.7234C40.2674 25.834 40.1386 25.922 39.9963 25.9821C39.854 26.0422 39.7012 26.0732 39.5468 26.0734C39.3941 26.0732 39.243 26.042 39.1027 25.9819C38.9623 25.9217 38.8356 25.8338 38.7301 25.7234L37.8201 24.8134C37.7099 24.7069 37.6221 24.5796 37.5617 24.4388C37.5014 24.298 37.4697 24.1465 37.4686 23.9933C37.4676 23.8401 37.4971 23.6883 37.5554 23.5466C37.6137 23.405 37.6998 23.2764 37.8084 23.1684C38.0287 22.9498 38.3264 22.8271 38.6368 22.8271C38.9471 22.8271 39.2448 22.9498 39.4651 23.1684L39.5468 23.25L41.0051 21.8034C41.2232 21.5852 41.5191 21.4627 41.8276 21.4627C42.1361 21.4627 42.432 21.5852 42.6501 21.8034C42.8682 22.0215 42.9908 22.3174 42.9908 22.6259C42.9908 22.9344 42.8682 23.2302 42.6501 23.4484Z" fill="white"/>
<path d="M49.4769 21.2317C49.2418 20.9433 49.0384 20.6304 48.8703 20.2984C48.7452 19.9239 48.663 19.5364 48.6253 19.1434C48.5766 18.1508 48.199 17.2026 47.5519 16.4484C46.7977 15.8013 45.8495 15.4237 44.8569 15.375C44.4639 15.3373 44.0764 15.2551 43.7019 15.13C43.3699 14.9619 43.057 14.7585 42.7686 14.5234C42.0204 13.8349 41.0637 13.4161 40.0503 13.3334C39.0363 13.4137 38.0788 13.8329 37.3319 14.5234C37.0416 14.7559 36.729 14.9592 36.3986 15.13C36.0238 15.2538 35.6364 15.336 35.2436 15.375C34.247 15.4214 33.2944 15.7991 32.5369 16.4484C31.8978 17.2064 31.5248 18.1531 31.4753 19.1434C31.4318 19.5355 31.3497 19.9224 31.2303 20.2984C31.0575 20.6304 30.8503 20.9432 30.6119 21.2317C29.9316 21.984 29.5176 22.9392 29.4336 23.95C29.5152 24.9615 29.9295 25.9174 30.6119 26.6684C30.8477 26.9588 31.0548 27.2714 31.2303 27.6017C31.3485 27.978 31.4306 28.3648 31.4753 28.7567C31.5226 29.751 31.8956 30.7021 32.5369 31.4634C33.2982 32.1047 34.2493 32.4777 35.2436 32.525C35.6355 32.5697 36.0223 32.6518 36.3986 32.77C36.7289 32.9455 37.0415 33.1526 37.3319 33.3884C38.0829 34.0708 39.0388 34.4851 40.0503 34.5667C41.0611 34.4828 42.0163 34.0687 42.7686 33.3884C43.0571 33.15 43.37 32.9428 43.7019 32.77C44.0779 32.6506 44.4648 32.5685 44.8569 32.525C45.8472 32.4755 46.7939 32.1025 47.5519 31.4634C48.2012 30.7059 48.5789 29.7533 48.6253 28.7567C48.6643 28.3639 48.7465 27.9766 48.8703 27.6017C49.0411 27.2713 49.2444 26.9587 49.4769 26.6684C50.1674 25.9215 50.5866 24.964 50.6669 23.95C50.5842 22.9367 50.1654 21.9799 49.4769 21.2317ZM40.0503 30.3084C38.7927 30.3084 37.5634 29.9355 36.5178 29.2368C35.4721 28.5381 34.6572 27.5451 34.1759 26.3833C33.6947 25.2214 33.5688 23.943 33.8141 22.7096C34.0594 21.4762 34.665 20.3432 35.5542 19.454C36.4435 18.5648 37.5764 17.9592 38.8098 17.7139C40.0432 17.4685 41.3217 17.5945 42.4835 18.0757C43.6453 18.557 44.6384 19.3719 45.337 20.4175C46.0357 21.4632 46.4086 22.6925 46.4086 23.95C46.4047 25.6352 45.7335 27.2501 44.5419 28.4417C43.3504 29.6333 41.7354 30.3044 40.0503 30.3084Z" fill="white"/>
<path d="M36.6641 42.5H40.1641V44.8333H36.6641V42.5Z" fill="white"/>
<path d="M45.2054 34.835C44.9954 34.8583 44.6687 34.9167 44.552 34.94C44.5054 34.9867 44.342 35.115 44.167 35.255C43.0173 36.2491 41.567 36.8284 40.0487 36.9C38.5304 36.8284 37.0801 36.2491 35.9304 35.255C35.7731 35.1301 35.6096 35.0132 35.4404 34.905C35.4287 34.9167 35.0904 34.8583 34.892 34.835C33.4019 34.7261 31.992 34.1178 30.8904 33.1083C29.8809 32.0067 29.2726 30.5968 29.1637 29.1067C29.1404 28.9083 29.082 28.57 29.0587 28.465C29.012 28.4183 28.8837 28.255 28.7554 28.08C27.7546 26.9287 27.171 25.4737 27.0987 23.95C27.1703 22.4317 27.7496 20.9814 28.7437 19.8317C28.874 19.6785 28.9911 19.5146 29.0937 19.3417C29.082 19.33 29.1404 19.0033 29.1637 18.805C29.1987 18.56 29.2454 18.2917 29.3037 18H15.6654C15.0471 18.0018 14.4546 18.2482 14.0175 18.6854C13.5803 19.1226 13.3338 19.7151 13.332 20.3333V48.3333C13.3338 48.9516 13.5803 49.5441 14.0175 49.9812C14.4546 50.4184 15.0471 50.6649 15.6654 50.6667H43.6654C44.2836 50.6649 44.8761 50.4184 45.3133 49.9812C45.7505 49.5441 45.9969 48.9516 45.9987 48.3333V34.7067C45.7187 34.7533 45.4504 34.8 45.2054 34.835ZM20.332 47.1667H17.9987C17.6893 47.1667 17.3925 47.0438 17.1737 46.825C16.9549 46.6062 16.832 46.3094 16.832 46C16.832 45.6906 16.9549 45.3938 17.1737 45.175C17.3925 44.9563 17.6893 44.8333 17.9987 44.8333H20.332C20.6415 44.8333 20.9382 44.9563 21.157 45.175C21.3758 45.3938 21.4987 45.6906 21.4987 46C21.4987 46.3094 21.3758 46.6062 21.157 46.825C20.9382 47.0438 20.6415 47.1667 20.332 47.1667ZM22.6654 42.5H17.9987C17.6893 42.5 17.3925 42.3771 17.1737 42.1583C16.9549 41.9395 16.832 41.6428 16.832 41.3333C16.832 41.0239 16.9549 40.7272 17.1737 40.5084C17.3925 40.2896 17.6893 40.1667 17.9987 40.1667H22.6654C22.9748 40.1667 23.2715 40.2896 23.4903 40.5084C23.7091 40.7272 23.832 41.0239 23.832 41.3333C23.832 41.6428 23.7091 41.9395 23.4903 42.1583C23.2715 42.3771 22.9748 42.5 22.6654 42.5ZM42.4987 46C42.4987 46.3094 42.3758 46.6062 42.157 46.825C41.9382 47.0438 41.6415 47.1667 41.332 47.1667H35.4987C35.1893 47.1667 34.8925 47.0438 34.6737 46.825C34.455 46.6062 34.332 46.3094 34.332 46V41.3333C34.332 41.0239 34.455 40.7272 34.6737 40.5084C34.8925 40.2896 35.1893 40.1667 35.4987 40.1667H41.332C41.6415 40.1667 41.9382 40.2896 42.157 40.5084C42.3758 40.7272 42.4987 41.0239 42.4987 41.3333V46Z" fill="white"/>
</g>
<defs>
<clipPath id="clip0_200_13687">
<rect width="37.3333" height="37.3333" fill="white" transform="translate(13.332 13.3334)"/>
</clipPath>
</defs>
</svg>
